<?xml version="1.0" encoding="UTF-8"?>
<svg id="Layer_1" data-name="Layer 1" xmlns="http://www.w3.org/2000/svg" viewBox="0 0 503.61 111.2">
  <defs>
    <style>
      .cls-1 {
        fill: #fff;
        stroke: #000;
        stroke-miterlimit: 10;
        stroke-width: 3px;
      }
    </style>
  </defs>
  <path class="cls-1" d="m72.16,61.93H31.29l-4.98,28.56h48.05l-3.08,17.65H1.78L20.31,1.51h69.36l-3.15,17.8h-47.83l-4.47,25.42h41.02l-3.08,17.21h0Z"/>
  <path class="cls-1" d="m130.39,1.51l13.11,77.12L183.27,1.51h28.56l-18.53,106.64h-21.53l5.27-30.4,10.4-47.46-40.87,77.86h-14.72l-14.28-80.57-6.88,52.51-4.91,28.05h-21.46L102.85,1.5h27.54,0Z"/>
  <path class="cls-1" d="m309.76,1.51l-12.01,70.31c-1.66,11.77-6.54,21.07-14.65,27.91s-18.16,10.16-30.18,9.96c-7.52-.15-14.05-1.79-19.59-4.94-5.54-3.15-9.63-7.59-12.27-13.33-2.64-5.74-3.54-12.24-2.71-19.52L230.29,1.51h21.46l-11.94,70.46c-.34,2.74-.37,5.3-.07,7.69.98,7.91,5.69,12.01,14.14,12.3,6.05.2,11.01-1.46,14.87-4.98,3.86-3.52,6.35-8.54,7.47-15.09L288.23,1.5h21.53Z"/>
  <path class="cls-1" d="m393.33,108.15h-20.8l-29.66-71.12-12.38,71.12h-21.46L327.56,1.51h20.73l29.74,71.26L390.41,1.51h21.39l-18.46,106.64h-.01Z"/>
  <path class="cls-1" d="m476.53,86.18h-37.21l-10.99,21.97h-23.66L461.65,1.51h19.85l20.29,106.64h-21.9l-3.37-21.97h0Zm-28.42-17.8h25.71l-6.01-39.7-19.7,39.7h0Z"/>
</svg>