<!--?xml version="1.0" encoding="utf-8"?-->
<!-- Generator: Adobe Illustrator 19.0.0, SVG Export Plug-In . SVG Version: 6.00 Build 0)  -->
<svg version="1.1" id="Layer_1" xmlns="http://www.w3.org/2000/svg" xmlns:xlink="http://www.w3.org/1999/xlink" x="0px" y="0px" viewBox="0 0 600 200" style="" xml:space="preserve">
<style type="text/css">
	.st0{fill:none;stroke:#414042;stroke-width:1.5;stroke-miterlimit:10;}
</style>
<rect width="100%" height="100%" fill="transparent"/>
<g id="XMLID_1_">
	<path id="XMLID_3_" class="st0 STVRDxhc_0" d="M19.5,123.7v-8.2h27.6v6c0,12.3,6.2,20.2,17.7,20.2c11.6,0,17.7-7.8,17.7-20.2V33.8h27.6v84.4
		c0,30.6-19.6,48.9-45.4,48.9C38.6,167,19.5,151.4,19.5,123.7z"></path>
	<path id="XMLID_5_" class="st0 STVRDxhc_1" d="M207.8,164.4l-9.1-26.5h-49.3l-9.1,26.5h-29.1l45.9-130.6h34l45.9,130.6H207.8z M158,112.5h32.1
		l-12.3-36c-1.5-4.1-2.4-6.5-3.7-10.6c-1.3,4.1-2.2,6.5-3.7,10.6L158,112.5z"></path>
	<path id="XMLID_8_" class="st0 STVRDxhc_2" d="M337.2,33.8h34.3v130.6h-26.7V98.3c0-7.5,0.6-13.8,1.1-20.7l-27.8,86.8h-19.8l-27.8-86.8
		c0.6,6.9,1.1,13.3,1.1,20.7v66.1H245V33.8h34.3l21.8,63.5c2.4,6.9,6.3,16.6,7.1,25.8c0.7-9.1,4.7-18.8,7.1-25.8L337.2,33.8z"></path>
	<path id="XMLID_10_" class="st0 STVRDxhc_3" d="M388.3,164.4V33.8h79.9v25.4h-52.3v24.3h44v25.4h-44V139h54.5v25.4H388.3z"></path>
	<path id="XMLID_12_" class="st0 STVRDxhc_4" d="M476.2,123.4H504c0,11,8,17.9,19.4,17.9c11.2,0,18.1-5.2,18.1-14.7c0-9.3-10.3-13.8-20.9-17.4
		l-15.5-5.2c-15.3-5.2-27.2-16.4-27.2-35.5c0-22.2,19.8-37.3,43.3-37.3c29.5,0,45.5,16.8,45.5,40.3h-27.2c0-8.6-7.1-14.9-18.3-14.9
		c-9.3,0-16,5-16,11.2c0,6.7,6,10.3,18.5,14.6l17.7,6.2c15.9,5.6,27.8,17.5,27.8,35.3c0,24.8-17.9,43.3-45.7,43.3
		C493.2,167,476.2,150,476.2,123.4z"></path>
</g>
<g id="XMLID_2_">
</g>
<g id="XMLID_14_">
</g>
<g id="XMLID_15_">
</g>
<g id="XMLID_16_">
</g>
<g id="XMLID_17_">
</g>
<g id="XMLID_18_">
</g>
<style data-made-with="vivus-instant">.STVRDxhc_0{stroke-dasharray:449 451;stroke-dashoffset:450;animation:STVRDxhc_draw 2000ms linear 0ms forwards;}.STVRDxhc_1{stroke-dasharray:606 608;stroke-dashoffset:607;animation:STVRDxhc_draw 2000ms linear 0ms forwards;}.STVRDxhc_2{stroke-dasharray:947 949;stroke-dashoffset:948;animation:STVRDxhc_draw 2000ms linear 0ms forwards;}.STVRDxhc_3{stroke-dasharray:618 620;stroke-dashoffset:619;animation:STVRDxhc_draw 2000ms linear 0ms forwards;}.STVRDxhc_4{stroke-dasharray:621 623;stroke-dashoffset:622;animation:STVRDxhc_draw 2000ms linear 0ms forwards;}@keyframes STVRDxhc_draw{100%{stroke-dashoffset:0;}}@keyframes STVRDxhc_fade{0%{stroke-opacity:1;}93.54838709677419%{stroke-opacity:1;}100%{stroke-opacity:0;}}</style></svg>
