<!--?xml version="1.0" encoding="UTF-8"?-->
<svg id="Layer_1" data-name="Layer 1" xmlns="http://www.w3.org/2000/svg" viewBox="0 0 513.72 171.97" style="">
  <defs>
    <style>
      .cls-1 {
        fill: #fff;
        stroke: #000;
        stroke-miterlimit: 10;
        stroke-width: 3px;
      }
    </style>
  </defs>
  <path class="cls-1 FeQKEREN_0" d="m73.42,83.6h-40.87l-4.98,28.56h48.05l-3.08,17.65H3.04L21.57,23.18h69.36l-3.15,17.8h-47.83l-4.47,25.42h41.02l-3.08,17.21Z"></path>
  <path class="cls-1 FeQKEREN_1" d="m131.65,23.18l13.11,77.12,39.77-77.12h28.56l-18.53,106.64h-21.53l5.27-30.4,10.4-47.46-40.87,77.86h-14.72l-14.28-80.57-6.88,52.51-4.91,28.05h-21.46l18.53-106.64h27.54Z"></path>
  <path class="cls-1 FeQKEREN_2" d="m311.02,23.18l-12.01,70.31c-1.66,11.77-6.54,21.07-14.65,27.91-8.11,6.84-18.16,10.16-30.18,9.96-7.52-.15-14.05-1.79-19.59-4.94-5.54-3.15-9.63-7.59-12.27-13.33-2.64-5.74-3.54-12.24-2.71-19.52l11.94-70.39h21.46l-11.94,70.46c-.34,2.74-.37,5.3-.07,7.69.98,7.91,5.69,12.01,14.14,12.3,6.05.2,11.01-1.46,14.87-4.98,3.86-3.52,6.35-8.54,7.47-15.09l12.01-70.39h21.53Z"></path>
  <path class="cls-1 FeQKEREN_3" d="m394.59,129.82h-20.8l-29.66-71.12-12.38,71.12h-21.46l18.53-106.64h20.73l29.74,71.26,12.38-71.26h21.39l-18.46,106.64Z"></path>
  <path class="cls-1 FeQKEREN_4" d="m477.79,107.85h-37.21l-10.99,21.97h-23.66l56.98-106.64h19.85l20.29,106.64h-21.9l-3.37-21.97Zm-28.42-17.8h25.71l-6.01-39.7-19.7,39.7Z"></path>
<style data-made-with="vivus-instant">.FeQKEREN_0{stroke-dasharray:534 536;stroke-dashoffset:535;animation:FeQKEREN_draw_0 7200ms ease-in 0ms infinite,FeQKEREN_fade 7200ms linear 0ms infinite;}.FeQKEREN_1{stroke-dasharray:826 828;stroke-dashoffset:827;animation:FeQKEREN_draw_1 7200ms ease-in 0ms infinite,FeQKEREN_fade 7200ms linear 0ms infinite;}.FeQKEREN_2{stroke-dasharray:514 516;stroke-dashoffset:515;animation:FeQKEREN_draw_2 7200ms ease-in 0ms infinite,FeQKEREN_fade 7200ms linear 0ms infinite;}.FeQKEREN_3{stroke-dasharray:600 602;stroke-dashoffset:601;animation:FeQKEREN_draw_3 7200ms ease-in 0ms infinite,FeQKEREN_fade 7200ms linear 0ms infinite;}.FeQKEREN_4{stroke-dasharray:490 492;stroke-dashoffset:491;animation:FeQKEREN_draw_4 7200ms ease-in 0ms infinite,FeQKEREN_fade 7200ms linear 0ms infinite;}@keyframes FeQKEREN_draw{100%{stroke-dashoffset:0;}}@keyframes FeQKEREN_fade{0%{stroke-opacity:1;}94.44444444444444%{stroke-opacity:1;}100%{stroke-opacity:0;}}@keyframes FeQKEREN_draw_0{11.11111111111111%{stroke-dashoffset: 535}52.77777777777778%{ stroke-dashoffset: 0;}100%{ stroke-dashoffset: 0;}}@keyframes FeQKEREN_draw_1{11.11111111111111%{stroke-dashoffset: 827}52.77777777777778%{ stroke-dashoffset: 0;}100%{ stroke-dashoffset: 0;}}@keyframes FeQKEREN_draw_2{11.11111111111111%{stroke-dashoffset: 515}52.77777777777778%{ stroke-dashoffset: 0;}100%{ stroke-dashoffset: 0;}}@keyframes FeQKEREN_draw_3{11.11111111111111%{stroke-dashoffset: 601}52.77777777777778%{ stroke-dashoffset: 0;}100%{ stroke-dashoffset: 0;}}@keyframes FeQKEREN_draw_4{11.11111111111111%{stroke-dashoffset: 491}52.77777777777778%{ stroke-dashoffset: 0;}100%{ stroke-dashoffset: 0;}}</style></svg>